<?xml version="1.0" encoding="UTF-8"?>
<!DOCTYPE svg PUBLIC "-//W3C//DTD SVG 1.1//EN" "http://www.w3.org/Graphics/SVG/1.1/DTD/svg11.dtd">
<svg xmlns="http://www.w3.org/2000/svg" version="1.1" width="18px" height="12px" style="shape-rendering:geometricPrecision; text-rendering:geometricPrecision; image-rendering:optimizeQuality; fill-rule:evenodd; clip-rule:evenodd" xmlns:xlink="http://www.w3.org/1999/xlink">
<g><path style="opacity:1" fill="#ce1327" d="M -0.5,-0.5 C 5.5,-0.5 11.5,-0.5 17.5,-0.5C 17.5,0.833333 17.5,2.16667 17.5,3.5C 11.5,3.5 5.5,3.5 -0.5,3.5C -0.5,2.16667 -0.5,0.833333 -0.5,-0.5 Z"/></g>
<g><path style="opacity:1" fill="#fbfbf8" d="M -0.5,4.5 C 2.16667,4.5 4.83333,4.5 7.5,4.5C 7.5,5.5 7.5,6.5 7.5,7.5C 4.83333,7.5 2.16667,7.5 -0.5,7.5C -0.5,6.5 -0.5,5.5 -0.5,4.5 Z"/></g>
<g><path style="opacity:1" fill="#fbf5f4" d="M -0.5,4.5 C -0.5,4.16667 -0.5,3.83333 -0.5,3.5C 5.5,3.5 11.5,3.5 17.5,3.5C 17.5,4.83333 17.5,6.16667 17.5,7.5C 14.8333,7.5 12.1667,7.5 9.5,7.5C 9.71481,5.82124 9.04814,4.82124 7.5,4.5C 4.83333,4.5 2.16667,4.5 -0.5,4.5 Z"/></g>
<g><path style="opacity:1" fill="#e3cd7a" d="M 7.5,4.5 C 9.04814,4.82124 9.71481,5.82124 9.5,7.5C 8.83333,7.5 8.16667,7.5 7.5,7.5C 7.5,6.5 7.5,5.5 7.5,4.5 Z"/></g>
<g><path style="opacity:1" fill="#101011" d="M -0.5,7.5 C 2.16667,7.5 4.83333,7.5 7.5,7.5C 8.16667,7.5 8.83333,7.5 9.5,7.5C 12.1667,7.5 14.8333,7.5 17.5,7.5C 17.5,8.16667 17.5,8.83333 17.5,9.5C 11.5,8.16667 5.5,8.16667 -0.5,9.5C -0.5,8.83333 -0.5,8.16667 -0.5,7.5 Z"/></g>
<g><path style="opacity:1" fill="#030303" d="M 17.5,9.5 C 17.5,10.1667 17.5,10.8333 17.5,11.5C 11.5,11.5 5.5,11.5 -0.5,11.5C -0.5,10.8333 -0.5,10.1667 -0.5,9.5C 5.5,8.16667 11.5,8.16667 17.5,9.5 Z"/></g>
</svg>
