<svg width="2265" height="663" viewBox="0 0 2265 663" fill="none" xmlns="http://www.w3.org/2000/svg">
<path d="M318.811 1.82581C301.078 4.49248 269.478 15.5591 270.545 18.6258C270.811 19.2925 312.411 43.5591 362.945 72.6258C550.545 180.359 566.278 189.426 566.278 190.226C566.278 191.426 478.411 244.626 477.078 244.226C475.745 243.959 179.211 73.1591 177.345 71.6925C175.345 69.9591 165.078 82.4925 160.011 92.8925C156.678 99.6925 156.278 101.959 156.278 113.826C156.278 126.759 156.411 127.559 160.945 135.026C170.145 150.492 171.611 151.292 312.811 230.492L444.811 304.492L445.211 466.492L445.611 628.492L449.211 636.226C454.011 646.492 464.145 656.092 473.878 659.959C479.878 662.226 484.278 662.892 493.611 662.759C500.278 662.759 507.478 662.226 509.611 661.559L513.611 660.359L514.678 570.359C515.211 520.892 516.011 441.026 516.678 392.626L517.611 304.892L561.478 279.692C585.611 265.692 605.478 254.626 605.611 254.759C605.878 255.026 606.678 333.426 607.345 429.026C608.145 524.626 609.078 603.026 609.345 603.426C610.411 604.492 630.145 590.359 639.211 581.959C655.345 567.026 666.545 550.359 672.678 532.492L676.278 521.826V378.492V235.159L672.545 221.826C668.545 207.292 659.878 188.092 652.011 176.092C645.345 166.092 628.945 148.892 618.945 141.426C607.345 132.892 545.611 96.2258 463.611 49.4258C386.811 5.55915 384.145 4.22581 360.278 1.29248C345.345 -0.574188 332.678 -0.440855 318.811 1.82581Z" fill="#323A3E"/>
<path d="M41.8783 183.959C25.2116 187.826 11.4783 201.693 4.94496 221.293C2.14496 229.559 2.01162 232.359 0.67829 357.159C-0.655044 493.693 -0.52171 499.293 5.74496 520.893C10.0116 535.693 15.4783 547.293 24.145 560.359C33.8783 574.893 54.4116 594.893 65.745 600.893L68.545 602.359L69.345 564.226C69.8783 543.293 70.2783 507.693 70.4116 485.293C70.545 462.893 70.945 439.293 71.4783 433.026L72.2783 421.559L170.278 477.026C224.278 507.559 278.545 538.359 291.078 545.426C320.945 562.359 331.612 566.626 346.278 567.426C356.545 568.093 358.012 567.826 362.278 564.893C369.345 560.226 372.945 551.959 372.945 540.359C372.945 532.226 372.278 529.559 368.278 521.559C359.078 503.026 362.012 505.026 210.012 419.826L73.2116 343.159L72.6783 301.159C72.4116 278.093 72.4116 258.893 72.545 258.759C72.6783 258.493 101.078 274.359 135.878 294.226C270.545 370.893 312.945 393.826 326.945 397.959C339.345 401.559 351.078 401.159 358.412 396.893C366.412 392.226 371.345 383.026 372.545 371.159L373.345 362.226L362.812 352.093C341.878 331.826 290.678 299.693 175.612 234.493C148.145 218.893 123.078 204.359 120.012 202.226C111.878 196.626 94.145 189.426 79.745 185.693C66.6783 182.359 51.6116 181.693 41.8783 183.959Z" fill="#F36621"/>
<path d="M2157.94 325.589C2157.94 374.655 2157.54 416.655 2157.14 418.922L2156.34 423.055H2165.14H2173.94V413.055C2173.94 402.522 2175.01 400.789 2178.08 406.522C2181.01 412.255 2191.01 420.122 2198.08 422.389C2207.54 425.589 2222.21 425.322 2231.54 421.722C2251.68 414.255 2264.61 391.855 2264.61 364.389C2264.61 345.589 2259.94 331.989 2249.54 320.789C2241.14 311.722 2232.88 307.989 2219.28 307.322C2203.41 306.522 2194.74 309.855 2184.34 320.655L2176.61 328.522V282.522V236.388H2167.28H2157.94V325.589ZM2221.28 323.189C2228.88 325.322 2239.54 336.522 2242.74 345.855C2246.08 355.589 2246.08 375.722 2242.88 385.322C2239.94 393.722 2231.14 403.989 2223.94 407.189C2211.54 412.922 2193.54 408.789 2184.74 398.255C2178.21 390.255 2176.21 381.322 2176.88 363.189C2177.41 349.855 2177.94 346.789 2180.88 341.055C2189.01 325.322 2204.34 318.522 2221.28 323.189Z" fill="#F36621"/>
<path d="M1872.61 332.387V421.721H1882.61H1892.61V379.054V336.387H1931.94H1971.28V379.054V421.721H1980.61H1989.94V332.387V243.054H1980.61H1971.28V281.054V319.054H1931.94H1892.61V281.054V243.054H1882.61H1872.61V332.387Z" fill="#F36621"/>
<path d="M1375.41 260.788C1362.48 268.254 1370.48 288.654 1385.01 285.054C1394.08 282.788 1397.68 270.121 1391.01 263.588C1387.14 259.588 1379.81 258.388 1375.41 260.788Z" fill="#323A3E"/>
<path d="M923.278 340.388V420.521L933.678 420.121L943.945 419.721L944.345 383.321L944.611 347.055H971.411H998.078L997.678 338.655L997.278 330.388L970.611 329.721L943.945 329.055V303.721V278.388L967.945 277.721L991.945 277.055L992.345 268.655L992.745 260.388H957.945H923.278V340.388Z" fill="#323A3E"/>
<path d="M1431.28 283.055V304.389H1422.61H1413.94V312.389V320.389H1422.61H1431.28V344.122C1431.28 357.322 1431.68 379.722 1432.21 394.122L1433.01 420.389H1443.01H1453.01L1452.48 370.655L1451.94 321.055L1461.01 320.655L1470.08 320.255L1469.68 312.655L1469.28 305.055L1460.34 304.655L1451.28 304.255V283.055V261.722H1441.28H1431.28V283.055Z" fill="#323A3E"/>
<path d="M1753.41 295.189C1724.48 301.989 1703.28 329.455 1703.28 360.389C1703.28 387.989 1716.48 408.655 1741.94 420.922L1753.28 426.389H1771.28C1791.81 426.255 1798.21 424.522 1812.74 414.789C1819.68 410.122 1832.61 395.722 1832.61 392.522C1832.61 392.122 1826.88 389.722 1819.94 387.322L1807.28 382.922L1801.14 389.055C1797.68 392.389 1791.94 396.655 1788.21 398.655C1776.74 404.389 1760.21 404.122 1752.61 397.989L1749.68 395.589L1762.74 382.255C1770.08 374.922 1787.68 357.455 1802.08 343.322L1828.34 317.722L1821.68 311.722C1814.08 304.789 1802.34 298.922 1790.48 295.855C1781.54 293.589 1761.94 293.189 1753.41 295.189ZM1788.48 319.855C1788.74 320.122 1776.21 333.189 1760.48 349.055C1744.88 364.789 1731.68 377.322 1731.14 376.789C1730.61 376.122 1729.68 371.189 1729.14 365.722C1726.34 333.322 1744.21 316.255 1778.61 318.789C1783.81 319.055 1788.21 319.589 1788.48 319.855Z" fill="#323A3E"/>
<path d="M1287.41 303.189C1278.21 304.922 1270.48 309.455 1263.94 316.655L1257.94 323.322V317.989C1257.94 315.055 1257.54 310.789 1257.14 308.522L1256.21 304.255L1247.68 304.655L1239.14 305.055L1239.28 361.722C1239.28 392.789 1239.81 418.789 1240.48 419.455C1241.01 419.989 1245.68 420.389 1250.74 420.122L1259.94 419.722L1260.61 380.389C1261.01 354.922 1261.81 339.855 1262.88 337.589C1271.01 319.455 1295.68 313.855 1308.21 327.322C1315.41 334.922 1315.81 338.122 1316.34 380.655L1316.88 420.389H1326.74H1336.61V379.322C1336.61 334.122 1336.08 330.122 1328.61 318.789C1323.68 311.322 1316.34 306.255 1306.34 303.722C1297.94 301.589 1296.08 301.455 1287.41 303.189Z" fill="#323A3E"/>
<path d="M1677.94 303.722C1669.94 306.255 1661.54 313.589 1657.68 321.455L1654.61 327.722L1653.94 316.389L1653.28 305.055L1644.08 304.655L1634.88 304.255L1635.68 322.522C1636.21 332.522 1636.61 358.655 1636.61 380.655V420.389H1646.48H1656.34L1656.88 383.322L1657.28 346.389L1661.01 338.655C1666.61 327.322 1677.28 320.789 1688.08 321.989L1692.61 322.522V312.922C1692.61 300.789 1690.88 299.722 1677.94 303.722Z" fill="#323A3E"/>
<path d="M1195.81 307.055C1189.28 310.788 1180.61 321.188 1180.61 325.321C1180.61 326.255 1180.08 327.055 1179.41 327.055C1178.74 327.055 1178.21 326.255 1178.34 325.321C1178.34 324.521 1178.21 319.321 1178.21 313.988L1177.94 304.255L1169.01 304.655C1160.61 305.055 1159.94 305.321 1160.08 307.988C1160.08 309.721 1160.21 335.721 1160.34 365.721L1160.61 420.521L1171.01 420.121L1181.28 419.721L1181.94 382.388C1182.61 347.855 1182.88 344.655 1185.41 339.055C1189.01 331.588 1194.74 325.988 1201.41 323.721L1206.61 321.988L1207.01 312.521C1207.41 301.321 1206.48 300.788 1195.81 307.055Z" fill="#323A3E"/>
<path d="M1371.28 362.388V420.521L1381.68 420.121L1391.94 419.721V362.388V305.055L1381.68 304.655L1371.28 304.255V362.388Z" fill="#323A3E"/>
<path d="M1511.68 343.989C1512.61 391.855 1514.61 402.122 1524.74 412.389C1532.88 420.389 1539.14 422.389 1557.28 422.389C1576.61 422.389 1583.68 419.855 1593.28 409.589C1606.08 395.855 1608.61 384.655 1608.61 339.322V305.722H1597.94H1587.28V342.655C1587.28 365.722 1586.74 381.722 1585.81 385.055C1583.68 392.522 1573.68 402.255 1565.94 404.389C1555.68 407.189 1544.61 403.855 1539.41 396.522C1533.68 388.655 1532.61 379.589 1532.61 341.455V305.722H1521.81H1511.01L1511.68 343.989Z" fill="#323A3E"/>
<path d="M1033.94 340.254C1033.94 396.121 1037.94 410.654 1055.81 420.121C1062.21 423.454 1063.68 423.721 1079.28 423.721C1093.94 423.721 1096.74 423.321 1102.88 420.521C1110.74 417.054 1119.01 408.787 1123.41 400.121C1129.54 387.987 1130.34 382.921 1130.88 343.987L1131.54 307.054H1120.74H1109.94V343.454C1109.94 386.387 1109.28 390.387 1100.08 398.787C1088.61 409.321 1072.34 409.721 1063.41 399.721C1056.21 391.454 1055.28 385.454 1055.28 344.121V307.054H1044.61H1033.94V340.254Z" fill="#323A3E"/>
<path d="M2025.94 340.655C2025.94 397.721 2030.08 412.388 2048.34 421.321C2055.14 424.655 2057.28 425.055 2069.94 425.055C2086.74 425.055 2095.14 422.521 2103.54 415.188C2106.74 412.255 2111.01 407.055 2113.01 403.455C2119.68 391.188 2120.74 383.855 2121.54 345.321L2122.34 309.721H2112.21H2102.08L2101.68 348.655C2101.28 385.721 2101.14 387.988 2098.34 393.055C2089.28 409.988 2066.74 414.788 2054.48 402.521C2046.88 394.921 2045.94 388.655 2045.94 346.788V309.721H2035.94H2025.94V340.655Z" fill="#F36621"/>
</svg>
