<svg width="150" height="37" viewBox="0 0 150 37" fill="none" xmlns="http://www.w3.org/2000/svg">
<rect width="150" height="37" fill="white"/>
<path d="M23.5302 0.864847C22.6139 1.00544 20.9812 1.58889 21.0363 1.75056C21.0501 1.78571 23.1995 3.06508 25.8105 4.59751C35.5035 10.2773 36.3164 10.7554 36.3164 10.7975C36.3164 10.8608 31.7765 13.6656 31.7076 13.6445C31.6387 13.6304 16.3173 4.62563 16.2208 4.54831C16.1175 4.45692 15.587 5.1177 15.3252 5.666C15.153 6.0245 15.1323 6.144 15.1323 6.76963C15.1323 7.45149 15.1392 7.49366 15.3734 7.88732C15.8488 8.70274 15.9246 8.74492 23.2202 12.9204L30.0404 16.8218L30.0611 25.3627L30.0818 33.9035L30.2678 34.3112C30.5158 34.8525 31.0393 35.3586 31.5423 35.5625C31.8523 35.682 32.0796 35.7171 32.5618 35.7101C32.9063 35.7101 33.2783 35.682 33.3885 35.6468L33.5952 35.5836L33.6503 30.8386C33.6779 28.2307 33.7192 24.02 33.7537 21.4683L33.8019 16.8429L36.0684 15.5143C37.3154 14.7762 38.3418 14.1928 38.3487 14.1998C38.3625 14.2139 38.4038 18.3472 38.4383 23.3874C38.4796 28.4275 38.5278 32.5609 38.5416 32.582C38.5967 32.6382 39.6163 31.8931 40.0848 31.4502C40.9184 30.6629 41.4971 29.7842 41.814 28.8423L42 28.2799V20.7232V13.1665L41.8071 12.4635C41.6004 11.6973 41.1526 10.6851 40.7461 10.0524C40.4017 9.52519 39.5543 8.61839 39.0376 8.22473C38.4383 7.77484 35.2486 5.84173 31.0118 3.37438C27.0436 1.06167 26.9059 0.991378 25.6727 0.836729C24.9011 0.738316 24.2467 0.745346 23.5302 0.864847Z" fill="#323A3E"/>
<path d="M9.22141 10.4668C8.36027 10.6707 7.65068 11.4017 7.31312 12.4351C7.16844 12.8709 7.16155 13.0185 7.09266 19.5981C7.02377 26.7963 7.03066 27.0916 7.35445 28.2304C7.5749 29.0106 7.85736 29.6222 8.30515 30.3111C8.80806 31.0773 9.86899 32.1317 10.4546 32.4481L10.5992 32.5254L10.6406 30.515C10.6681 29.4113 10.6888 27.5344 10.6957 26.3535C10.7026 25.1725 10.7232 23.9283 10.7508 23.5979L10.7921 22.9934L15.8556 25.9177C18.6458 27.5274 21.4496 29.1512 22.0972 29.5238C23.6404 30.4165 24.1915 30.6415 24.9493 30.6837C25.4798 30.7188 25.5556 30.7047 25.776 30.5501C26.1411 30.3041 26.3271 29.8682 26.3271 29.2567C26.3271 28.8279 26.2927 28.6873 26.086 28.2655C25.6107 27.2884 25.7622 27.3939 17.9086 22.902L10.8404 18.86L10.8128 16.6457C10.799 15.4296 10.799 14.4174 10.8059 14.4104C10.8128 14.3963 12.2802 15.2328 14.0783 16.2802C21.0363 20.3222 23.227 21.5313 23.9504 21.7492C24.5911 21.939 25.1973 21.9179 25.5762 21.6929C25.9896 21.4469 26.2445 20.9619 26.3065 20.3362L26.3478 19.8653L25.8036 19.331C24.722 18.2625 22.0765 16.5684 16.1312 13.131C14.7121 12.3085 13.4169 11.5423 13.2584 11.4299C12.8382 11.1346 11.922 10.755 11.1779 10.5582C10.5028 10.3825 9.72431 10.3473 9.22141 10.4668Z" fill="#F36621"/>
<path d="M135.763 17.8441C135.763 21.1729 135.736 24.0223 135.709 24.1761L135.655 24.4565H136.252H136.849V23.7781C136.849 23.0635 136.921 22.9459 137.129 23.3349C137.328 23.7238 138.007 24.2575 138.486 24.4113C139.128 24.6284 140.123 24.6103 140.757 24.3661C142.122 23.8595 143 22.3398 143 20.4764C143 19.201 142.683 18.2783 141.978 17.5185C141.408 16.9034 140.847 16.6501 139.924 16.6048C138.848 16.5506 138.26 16.7767 137.554 17.5094L137.03 18.0431V14.9223V11.7925H136.397H135.763V17.8441ZM140.06 17.6813C140.576 17.826 141.299 18.5859 141.516 19.2191C141.743 19.8794 141.743 21.2453 141.525 21.8966C141.326 22.4665 140.729 23.163 140.241 23.3801C139.4 23.7691 138.179 23.4886 137.582 22.774C137.138 22.2313 137.003 21.6252 137.048 20.395C137.084 19.4904 137.12 19.2824 137.319 18.8934C137.871 17.826 138.911 17.3647 140.06 17.6813Z" fill="#F36621"/>
<path d="M116.406 18.3046V24.3652H117.084H117.762V21.4706V18.576H120.431H123.099V21.4706V24.3652H123.733H124.366V18.3046V12.244H123.733H123.099V14.822V17.4H120.431H117.762V14.822V12.244H117.084H116.406V18.3046Z" fill="#F36621"/>
<path d="M82.6739 13.4481C81.7965 13.9546 82.3393 15.3386 83.3252 15.0944C83.9404 14.9406 84.1846 14.0813 83.7323 13.638C83.47 13.3667 82.9725 13.2853 82.6739 13.4481Z" fill="#323A3E"/>
<path d="M52 18.8467V24.2832L52.7056 24.2561L53.4021 24.2289L53.4292 21.7594L53.4473 19.299H55.2655H57.0746L57.0475 18.7291L57.0204 18.1683L55.2112 18.1231L53.4021 18.0778V16.3592V14.6405L55.0303 14.5952L56.6585 14.55L56.6857 13.9801L56.7128 13.4193H54.3519H52V18.8467Z" fill="#323A3E"/>
<path d="M86.464 14.9583V16.4056H85.8761H85.2881V16.9484V17.4911H85.8761H86.464V19.1012C86.464 19.9968 86.4912 21.5164 86.5273 22.4934L86.5816 24.2754H87.2601H87.9385L87.9023 20.9013L87.8661 17.5363L88.4812 17.5092L89.0963 17.4821L89.0692 16.9664L89.0421 16.4508L88.436 16.4237L87.8209 16.3966V14.9583V13.511H87.1425H86.464V14.9583Z" fill="#323A3E"/>
<path d="M108.319 15.7826C106.356 16.2439 104.917 18.1074 104.917 20.206C104.917 22.0784 105.813 23.4805 107.541 24.3127L108.31 24.6836H109.531C110.924 24.6745 111.358 24.557 112.344 23.8966C112.814 23.58 113.692 22.6031 113.692 22.386C113.692 22.3588 113.303 22.196 112.832 22.0332L111.973 21.7347L111.557 22.1508C111.322 22.3769 110.933 22.6664 110.68 22.8021C109.902 23.191 108.78 23.173 108.264 22.7569L108.065 22.594L108.952 21.6895C109.449 21.1919 110.643 20.007 111.62 19.0481L113.402 17.3113L112.95 16.9043C112.434 16.4339 111.638 16.0359 110.833 15.8278C110.227 15.6741 108.898 15.6469 108.319 15.7826ZM110.698 17.4561C110.716 17.4742 109.865 18.3606 108.798 19.4371C107.74 20.5045 106.844 21.3548 106.808 21.3186C106.772 21.2734 106.709 20.9387 106.672 20.5678C106.482 18.3697 107.695 17.2118 110.028 17.3837C110.381 17.4018 110.68 17.438 110.698 17.4561Z" fill="#323A3E"/>
<path d="M76.704 16.3242C76.0798 16.4418 75.5552 16.7494 75.1119 17.2378L74.7049 17.6901V17.3283C74.7049 17.1293 74.6778 16.8398 74.6506 16.686L74.5873 16.3966L74.0084 16.4237L73.4294 16.4508L73.4385 20.2953C73.4385 22.4029 73.4747 24.1668 73.5199 24.2121C73.5561 24.2483 73.8727 24.2754 74.2164 24.2573L74.8406 24.2302L74.8858 21.5617C74.9129 19.8339 74.9672 18.8118 75.0396 18.658C75.5914 17.4278 77.2648 17.0479 78.1151 17.9615C78.6036 18.4771 78.6307 18.6942 78.6669 21.5798L78.7031 24.2754H79.3725H80.0419V21.4893C80.0419 18.4228 80.0057 18.1514 79.4991 17.3826C79.1644 16.876 78.6669 16.5323 77.9885 16.3604C77.4186 16.2157 77.292 16.2066 76.704 16.3242Z" fill="#323A3E"/>
<path d="M103.199 16.3604C102.656 16.5323 102.086 17.0298 101.824 17.5635L101.616 17.9886L101.57 17.2197L101.525 16.4508L100.901 16.4237L100.277 16.3966L100.331 17.6358C100.367 18.3143 100.394 20.0872 100.394 21.5798V24.2754H101.064H101.733L101.769 21.7607L101.797 19.255L102.05 18.7304C102.43 17.9615 103.153 17.5182 103.886 17.5996L104.194 17.6358V16.9845C104.194 16.1614 104.076 16.089 103.199 16.3604Z" fill="#323A3E"/>
<path d="M70.4894 16.5853C70.0462 16.8386 69.4582 17.5441 69.4582 17.8246C69.4582 17.8879 69.422 17.9422 69.3768 17.9422C69.3316 17.9422 69.2954 17.8879 69.3044 17.8246C69.3044 17.7703 69.2954 17.4175 69.2954 17.0557L69.2773 16.3953L68.6712 16.4225C68.1013 16.4496 68.0561 16.4677 68.0652 16.6486C68.0652 16.7662 68.0742 18.5301 68.0832 20.5654L68.1013 24.2832L68.8069 24.2561L69.5034 24.2289L69.5487 21.6961C69.5939 19.3533 69.612 19.1362 69.7838 18.7563C70.0281 18.2497 70.417 17.8698 70.8693 17.716L71.2221 17.5984L71.2492 16.9562C71.2764 16.1963 71.2131 16.1601 70.4894 16.5853Z" fill="#323A3E"/>
<path d="M82.3938 20.3393V24.2832L83.0994 24.2561L83.7959 24.2289V20.3393V16.4496L83.0994 16.4225L82.3938 16.3953V20.3393Z" fill="#323A3E"/>
<path d="M91.919 19.0932C91.9823 22.3406 92.118 23.0372 92.8055 23.7337C93.3573 24.2764 93.7824 24.4121 95.0126 24.4121C96.3243 24.4121 96.8037 24.2402 97.455 23.5437C98.3234 22.612 98.4952 21.8522 98.4952 18.7766V16.4971H97.7716H97.0479V19.0028C97.0479 20.5677 97.0117 21.6532 96.9484 21.8793C96.8037 22.3859 96.1253 23.0462 95.6006 23.1909C94.9041 23.3809 94.1533 23.1548 93.8005 22.6572C93.4116 22.1235 93.3392 21.5084 93.3392 18.9214V16.4971H92.6065H91.8738L91.919 19.0932Z" fill="#323A3E"/>
<path d="M59.5081 18.8393C59.5081 22.6295 59.7794 23.6155 60.9916 24.2577C61.4257 24.4839 61.5253 24.502 62.5836 24.502C63.5786 24.502 63.7686 24.4748 64.1847 24.2849C64.7184 24.0497 65.2792 23.4888 65.5777 22.9009C65.9938 22.0777 66.0481 21.734 66.0843 19.0926L66.1295 16.5869H65.3968H64.6641V19.0564C64.6641 21.9692 64.6189 22.2405 63.9947 22.8104C63.2168 23.525 62.1132 23.5522 61.5072 22.8737C61.0187 22.3129 60.9554 21.9058 60.9554 19.1017V16.5869H60.2317H59.5081V18.8393Z" fill="#323A3E"/>
<path d="M126.808 18.8659C126.808 22.7374 127.089 23.7325 128.328 24.3385C128.789 24.5647 128.934 24.5918 129.793 24.5918C130.933 24.5918 131.503 24.4199 132.073 23.9224C132.29 23.7234 132.58 23.3706 132.715 23.1264C133.167 22.2942 133.24 21.7967 133.294 19.1825L133.348 16.7672H132.661H131.973L131.946 19.4086C131.919 21.9233 131.91 22.0771 131.72 22.4208C131.105 23.5696 129.576 23.8953 128.744 23.0631C128.229 22.5475 128.165 22.1223 128.165 19.282V16.7672H127.487H126.808V18.8659Z" fill="#F36621"/>
</svg>
