<svg width="200" height="61" viewBox="0 0 200 61" fill="none" xmlns="http://www.w3.org/2000/svg">
<path d="M29.1708 0.166629C27.5482 0.410625 24.6568 1.42321 24.7544 1.7038C24.7788 1.7648 28.5852 3.98517 33.2089 6.64473C50.374 16.5022 51.8136 17.3318 51.8136 17.405C51.8136 17.5148 43.7739 22.3825 43.6519 22.3459C43.5299 22.3215 16.3976 6.69353 16.2268 6.55933C16.0438 6.40073 15.1044 7.54751 14.6408 8.4991C14.3358 9.12129 14.2992 9.32869 14.2992 10.4145C14.2992 11.5979 14.3114 11.671 14.7262 12.3542C15.568 13.7694 15.7022 13.8426 28.6218 21.0893L40.6996 27.8602L40.7362 42.683L40.7728 57.5057L41.1022 58.2133C41.5414 59.1527 42.4686 60.0311 43.3591 60.3849C43.9081 60.5923 44.3107 60.6533 45.1647 60.6411C45.7747 60.6411 46.4335 60.5923 46.6287 60.5313L46.9947 60.4215L47.0923 52.1866C47.1411 47.6605 47.2143 40.3528 47.2753 35.9243L47.3607 27.8968L51.3744 25.591C53.5826 24.3101 55.4004 23.2975 55.4126 23.3097C55.437 23.3341 55.5102 30.5076 55.5712 39.2548C55.6444 48.0021 55.7298 55.1756 55.7542 55.2122C55.8518 55.3098 57.6573 54.0166 58.4869 53.248C59.9631 51.8816 60.9879 50.3567 61.5491 48.7219L61.8785 47.7459V34.6311V21.5163L61.5369 20.2963C61.1709 18.9665 60.3779 17.2098 59.6581 16.1118C59.0481 15.1968 57.5475 13.623 56.6325 12.9398C55.5712 12.159 49.9226 8.8041 42.4198 4.52196C35.3927 0.508223 35.1487 0.386225 32.9649 0.117829C31.5985 -0.052968 30.4395 -0.0407682 29.1708 0.166629Z" fill="#323A3E"/>
<path d="M3.8318 16.8322C2.30683 17.186 1.05025 18.4548 0.452457 20.2482C0.196261 21.0046 0.184061 21.2608 0.0620626 32.6798C-0.0599356 45.1724 -0.0477358 45.6848 0.525655 47.6611C0.916049 49.0153 1.41624 50.0767 2.20923 51.2723C3.09982 52.6021 4.97859 54.432 6.01557 54.981L6.27177 55.1152L6.34497 51.6261C6.39377 49.7107 6.43036 46.4534 6.44256 44.4038C6.45476 42.3542 6.49136 40.1949 6.54016 39.6215L6.61336 38.5723L15.5802 43.6474C20.5211 46.4412 25.4865 49.2593 26.6333 49.9059C29.366 51.4553 30.342 51.8457 31.684 51.9189C32.6234 51.9799 32.7576 51.9555 33.148 51.6871C33.7945 51.2601 34.1239 50.5037 34.1239 49.4423C34.1239 48.6981 34.0629 48.4541 33.6969 47.7221C32.8552 46.0264 33.1236 46.2094 19.2158 38.4137L6.69876 31.3988L6.64996 27.5559C6.62556 25.4453 6.62556 23.6885 6.63776 23.6763C6.64996 23.6519 9.24852 25.1037 12.4327 26.9215C24.7545 33.9364 28.634 36.0347 29.915 36.4129C31.0496 36.7423 32.1232 36.7057 32.7942 36.3153C33.5261 35.8883 33.9775 35.0465 34.0873 33.9608L34.1605 33.1434L33.1968 32.2162C31.2814 30.3618 26.5967 27.4217 16.0682 21.456C13.5551 20.0286 11.2615 18.6988 10.9809 18.5036C10.2367 17.9912 8.61413 17.3324 7.29655 16.9908C6.10097 16.6858 4.72239 16.6248 3.8318 16.8322Z" fill="#F36621"/>
<path d="M189.849 29.7906C189.849 34.2801 189.812 38.1231 189.775 38.3304L189.702 38.7086H190.507H191.313V37.7937C191.313 36.8299 191.41 36.6713 191.691 37.1959C191.959 37.7205 192.874 38.4402 193.521 38.6476C194.387 38.9404 195.729 38.916 196.583 38.5866C198.425 37.9035 199.609 35.8539 199.609 33.3407C199.609 31.6206 199.182 30.3762 198.23 29.3514C197.461 28.5218 196.705 28.1802 195.461 28.1192C194.009 28.046 193.216 28.351 192.264 29.3392L191.557 30.059V25.85V21.6289H190.703H189.849V29.7906ZM195.644 29.571C196.339 29.7662 197.315 30.791 197.608 31.6449C197.913 32.5355 197.913 34.3777 197.62 35.2561C197.352 36.0247 196.546 36.9641 195.888 37.2569C194.753 37.7815 193.106 37.4033 192.301 36.4395C191.703 35.7075 191.52 34.8901 191.581 33.2309C191.63 32.0109 191.679 31.7303 191.947 31.2058C192.691 29.7662 194.094 29.144 195.644 29.571Z" fill="#F36621"/>
<path d="M163.741 30.4121V38.5859H164.656H165.571V34.682V30.7781H169.17H172.769V34.682V38.5859H173.623H174.477V30.4121V22.2382H173.623H172.769V25.7151V29.1921H169.17H165.571V25.7151V22.2382H164.656H163.741V30.4121Z" fill="#F36621"/>
<path d="M118.248 23.8621C117.065 24.5453 117.797 26.4119 119.126 26.0825C119.956 25.8751 120.285 24.7161 119.675 24.1183C119.322 23.7523 118.651 23.6425 118.248 23.8621Z" fill="#323A3E"/>
<path d="M76.8784 31.1445V38.4766L77.83 38.44L78.7694 38.4034L78.806 35.0728L78.8304 31.7545H81.2826H83.7225L83.6859 30.9859L83.6493 30.2295L81.2094 30.1685L78.7694 30.1075V27.7895V25.4716L80.9654 25.4106L83.1613 25.3496L83.1979 24.581L83.2345 23.8246H80.0504H76.8784V31.1445Z" fill="#323A3E"/>
<path d="M123.36 25.899V27.851H122.567H121.774V28.583V29.315H122.567H123.36V31.4866C123.36 32.6943 123.396 34.7439 123.445 36.0615L123.518 38.4648H124.433H125.348L125.299 33.9143L125.251 29.376L126.08 29.3394L126.91 29.3028L126.873 28.6074L126.837 27.912L126.019 27.8754L125.19 27.8388V25.899V23.9471H124.275H123.36V25.899Z" fill="#323A3E"/>
<path d="M152.834 27.0091C150.187 27.6312 148.247 30.1444 148.247 32.9748C148.247 35.5001 149.455 37.3911 151.785 38.5135L152.822 39.0137H154.469C156.348 39.0015 156.934 38.8429 158.263 37.9523C158.898 37.5253 160.081 36.2077 160.081 35.9149C160.081 35.8783 159.557 35.6587 158.922 35.4391L157.763 35.0365L157.202 35.5977C156.885 35.9027 156.36 36.2931 156.019 36.4761C154.969 37.0007 153.457 36.9763 152.761 36.4151L152.493 36.1955L153.688 34.9755C154.359 34.3045 155.97 32.7064 157.287 31.4132L159.691 29.0708L159.081 28.5218C158.385 27.8874 157.312 27.3507 156.226 27.0701C155.409 26.8627 153.615 26.8261 152.834 27.0091ZM156.043 29.266C156.067 29.2904 154.921 30.486 153.481 31.9378C152.054 33.3774 150.846 34.5241 150.797 34.4753C150.748 34.4143 150.663 33.9629 150.614 33.4628C150.358 30.4982 151.993 28.9366 155.14 29.1684C155.616 29.1928 156.019 29.2416 156.043 29.266Z" fill="#323A3E"/>
<path d="M110.196 27.7412C109.354 27.8998 108.647 28.3146 108.049 28.9734L107.5 29.5834V29.0954C107.5 28.827 107.463 28.4366 107.427 28.2292L107.341 27.8388L106.561 27.8754L105.78 27.912L105.792 33.0969C105.792 35.9395 105.841 38.3184 105.902 38.3794C105.951 38.4282 106.378 38.4648 106.841 38.4404L107.683 38.4038L107.744 34.8049C107.781 32.4747 107.854 31.0962 107.951 30.8888C108.696 29.2296 110.953 28.7172 112.099 29.9494C112.758 30.6448 112.795 30.9376 112.843 34.8293L112.892 38.4648H113.795H114.698V34.7073C114.698 30.5716 114.649 30.2056 113.966 29.1686C113.514 28.4854 112.843 28.0218 111.928 27.79C111.16 27.5948 110.989 27.5826 110.196 27.7412Z" fill="#323A3E"/>
<path d="M145.929 27.79C145.197 28.0218 144.429 28.6928 144.075 29.4126L143.794 29.986L143.733 28.949L143.672 27.912L142.831 27.8754L141.989 27.8388L142.062 29.5102C142.111 30.4252 142.147 32.8163 142.147 34.8293V38.4648H143.05H143.953L144.002 35.0733L144.038 31.6939L144.38 30.9864C144.892 29.9494 145.868 29.3516 146.856 29.4614L147.271 29.5102V28.6318C147.271 27.5216 147.113 27.424 145.929 27.79Z" fill="#323A3E"/>
<path d="M101.815 28.0945C101.217 28.4361 100.424 29.3877 100.424 29.7659C100.424 29.8513 100.375 29.9245 100.314 29.9245C100.253 29.9245 100.204 29.8513 100.217 29.7659C100.217 29.6927 100.204 29.2169 100.204 28.7289L100.18 27.8383L99.3626 27.8749C98.594 27.9115 98.533 27.9359 98.5452 28.1799C98.5452 28.3385 98.5574 30.7175 98.5696 33.4624L98.594 38.4766L99.5456 38.44L100.485 38.4034L100.546 34.9874C100.607 31.8277 100.631 31.5349 100.863 31.0225C101.193 30.3393 101.717 29.8269 102.327 29.6195L102.803 29.4609L102.84 28.5947C102.876 27.5699 102.791 27.5211 101.815 28.0945Z" fill="#323A3E"/>
<path d="M117.87 33.1574V38.4766L118.821 38.44L119.761 38.4034V33.1574V27.9115L118.821 27.8749L117.87 27.8383V33.1574Z" fill="#323A3E"/>
<path d="M130.716 31.4749C130.802 35.8547 130.985 36.7941 131.912 37.7335C132.656 38.4654 133.229 38.6484 134.888 38.6484C136.657 38.6484 137.304 38.4166 138.182 37.4773C139.354 36.2207 139.585 35.1959 139.585 31.048V27.9736H138.609H137.633V31.3529C137.633 33.4635 137.585 34.9275 137.499 35.2325C137.304 35.9157 136.389 36.8063 135.681 37.0015C134.742 37.2577 133.73 36.9527 133.254 36.2817C132.729 35.5619 132.632 34.7323 132.632 31.2432V27.9736H131.643H130.655L130.716 31.4749Z" fill="#323A3E"/>
<path d="M87.0043 31.1324C87.0043 36.2442 87.3703 37.5739 89.005 38.4401C89.5906 38.7451 89.7248 38.7695 91.1522 38.7695C92.4942 38.7695 92.7504 38.7329 93.3116 38.4767C94.0314 38.1595 94.7878 37.4032 95.1903 36.6102C95.7515 35.5 95.8247 35.0364 95.8735 31.474L95.9345 28.0947H94.9463H93.9582V31.4252C93.9582 35.3536 93.8972 35.7196 93.0554 36.4882C92.0062 37.452 90.5178 37.4886 89.7004 36.5736C89.0416 35.8172 88.9562 35.2682 88.9562 31.4862V28.0947H87.9803H87.0043V31.1324Z" fill="#323A3E"/>
<path d="M177.771 31.1681C177.771 36.3897 178.149 37.7316 179.82 38.549C180.443 38.854 180.638 38.8906 181.797 38.8906C183.334 38.8906 184.103 38.6588 184.871 37.9878C185.164 37.7194 185.554 37.2437 185.737 36.9143C186.347 35.7919 186.445 35.1209 186.518 31.5951L186.591 28.3378H185.664H184.737L184.7 31.9001C184.664 35.2917 184.652 35.4991 184.395 35.9627C183.566 37.512 181.504 37.9512 180.382 36.8289C179.686 36.1335 179.601 35.5601 179.601 31.7293V28.3378H178.686H177.771V31.1681Z" fill="#F36621"/>
</svg>
