<svg width="181" height="52" viewBox="0 0 181 52" fill="none" xmlns="http://www.w3.org/2000/svg">
<path d="M24.7039 0.142069C23.3298 0.348703 20.8812 1.20623 20.9639 1.44386C20.9845 1.49552 24.208 3.37588 28.1237 5.62819C42.6604 13.9762 43.8795 14.6787 43.8795 14.7407C43.8795 14.8337 37.0709 18.956 36.9676 18.925C36.8643 18.9044 13.8867 5.66951 13.742 5.55587C13.587 5.42155 12.7915 6.39273 12.3989 7.1986C12.1406 7.72552 12.1096 7.90115 12.1096 8.82067C12.1096 9.82285 12.12 9.88483 12.4712 10.4634C13.1841 11.6619 13.2978 11.7239 24.239 17.8609L34.4674 23.595L34.4984 36.1479L34.5293 48.7009L34.8083 49.3002C35.1802 50.0957 35.9654 50.8396 36.7197 51.1392C37.1846 51.3148 37.5255 51.3665 38.2487 51.3562C38.7653 51.3562 39.3232 51.3148 39.4885 51.2632L39.7985 51.1702L39.8812 44.1963C39.9225 40.3633 39.9845 34.1746 40.0361 30.4242L40.1084 23.626L43.5076 21.6733C45.3776 20.5884 46.917 19.7309 46.9274 19.7412C46.948 19.7619 47.01 25.8369 47.0617 33.2447C47.1237 40.6526 47.196 46.7276 47.2166 46.7586C47.2993 46.8412 48.8284 45.7461 49.5309 45.0952C50.7811 43.938 51.6489 42.6466 52.1242 41.2621L52.4031 40.4356V29.329V18.2225L52.1139 17.1893C51.8039 16.0632 51.1323 14.5754 50.5228 13.6456C50.0062 12.8707 48.7354 11.5379 47.9605 10.9593C47.0617 10.2981 42.2781 7.45689 35.9241 3.83048C29.9731 0.431356 29.7664 0.328039 27.9171 0.100743C26.7599 -0.0439009 25.7784 -0.0335692 24.7039 0.142069Z" fill="#323A3E"/>
<path d="M3.24505 14.255C1.95359 14.5546 0.889424 15.6291 0.383173 17.1479C0.166207 17.7884 0.155876 18.0054 0.052559 27.6758C-0.0507577 38.2555 -0.040426 38.6894 0.445163 40.3631C0.775776 41.5099 1.19937 42.4088 1.87093 43.4213C2.62515 44.5475 4.21622 46.0972 5.09442 46.5621L5.31138 46.6758L5.37337 43.7209C5.4147 42.0989 5.44569 39.3403 5.45602 37.6046C5.46636 35.8689 5.49735 34.0401 5.53868 33.5546L5.60067 32.666L13.1944 36.964C17.3788 39.33 21.5838 41.7166 22.5549 42.2642C24.8692 43.5763 25.6958 43.9069 26.8323 43.9689C27.6278 44.0205 27.7414 43.9999 28.0721 43.7726C28.6196 43.411 28.8986 42.7704 28.8986 41.8716C28.8986 41.2413 28.8469 41.0347 28.537 40.4148C27.8241 38.9787 28.0514 39.1337 16.2733 32.5317L5.67299 26.591L5.63166 23.3365C5.611 21.5492 5.611 20.0614 5.62133 20.0511C5.63166 20.0304 7.83231 21.2599 10.5289 22.7993C20.9639 28.74 24.2493 30.517 25.3342 30.8373C26.295 31.1163 27.2042 31.0853 27.7724 30.7547C28.3923 30.3931 28.7746 29.6802 28.8676 28.7607L28.9296 28.0684L28.1134 27.2832C26.4913 25.7128 22.5239 23.2229 13.6077 18.1707C11.4794 16.9619 9.53703 15.8357 9.29941 15.6704C8.66917 15.2365 7.29506 14.6786 6.17924 14.3893C5.16674 14.131 3.99926 14.0794 3.24505 14.255Z" fill="#F36621"/>
<path d="M170.373 25.148C170.373 29.6375 170.337 33.4805 170.3 33.6879L170.227 34.0661H171.032H171.837V33.1511C171.837 32.1873 171.935 32.0287 172.215 32.5533C172.484 33.0779 173.399 33.7977 174.045 34.0051C174.912 34.2979 176.254 34.2735 177.108 33.9441C178.95 33.2609 180.133 31.2113 180.133 28.6981C180.133 26.978 179.706 25.7336 178.755 24.7088C177.986 23.8792 177.23 23.5376 175.985 23.4766C174.533 23.4034 173.74 23.7084 172.789 24.6966L172.081 25.4164V21.2075V16.9863H171.227H170.373V25.148ZM176.168 24.9284C176.864 25.1236 177.84 26.1484 178.132 27.0024C178.437 27.893 178.437 29.7351 178.145 30.6135C177.876 31.3821 177.071 32.3215 176.412 32.6143C175.278 33.1389 173.631 32.7607 172.825 31.7969C172.228 31.0649 172.045 30.2475 172.106 28.5883C172.154 27.3684 172.203 27.0878 172.472 26.5632C173.216 25.1236 174.619 24.5014 176.168 24.9284Z" fill="#F36621"/>
<path d="M144.266 25.7695V33.9434H145.181H146.096V30.0394V26.1355H149.695H153.294V30.0394V33.9434H154.148H155.002V25.7695V17.5956H154.148H153.294V21.0726V24.5495H149.695H146.096V21.0726V17.5956H145.181H144.266V25.7695Z" fill="#F36621"/>
<path d="M98.7726 19.2195C97.5893 19.9027 98.3212 21.7693 99.651 21.4399C100.481 21.2325 100.81 20.0735 100.2 19.4757C99.8462 19.1097 99.1752 18.9999 98.7726 19.2195Z" fill="#323A3E"/>
<path d="M57.4031 26.5019V33.834L58.3547 33.7974L59.294 33.7608L59.3306 30.4302L59.355 27.1119H61.8072H64.2472L64.2106 26.3433L64.174 25.5869L61.734 25.5259L59.294 25.4649V23.1469V20.829L61.49 20.768L63.686 20.707L63.7226 19.9384L63.7592 19.182H60.575H57.4031V26.5019Z" fill="#323A3E"/>
<path d="M103.884 21.2565V23.2084H103.091H102.298V23.9404V24.6724H103.091H103.884V26.844C103.884 28.0518 103.921 30.1013 103.97 31.4189L104.043 33.8223H104.958H105.873L105.824 29.2717L105.775 24.7334L106.605 24.6968L107.434 24.6602L107.398 23.9648L107.361 23.2694L106.544 23.2328L105.714 23.1962V21.2565V19.3045H104.799H103.884V21.2565Z" fill="#323A3E"/>
<path d="M133.359 22.3665C130.712 22.9887 128.772 25.5018 128.772 28.3322C128.772 30.8575 129.98 32.7485 132.31 33.8709L133.347 34.3711H134.994C136.873 34.3589 137.458 34.2003 138.788 33.3097C139.422 32.8827 140.606 31.5651 140.606 31.2723C140.606 31.2357 140.081 31.0161 139.447 30.7965L138.288 30.394L137.727 30.9551C137.409 31.2601 136.885 31.6505 136.543 31.8335C135.494 32.3581 133.981 32.3337 133.286 31.7725L133.018 31.5529L134.213 30.333C134.884 29.662 136.494 28.0638 137.812 26.7706L140.215 24.4282L139.605 23.8793C138.91 23.2449 137.836 22.7081 136.751 22.4275C135.933 22.2201 134.14 22.1835 133.359 22.3665ZM136.568 24.6234C136.592 24.6478 135.445 25.8434 134.006 27.2952C132.578 28.7348 131.371 29.8816 131.322 29.8328C131.273 29.7718 131.188 29.3204 131.139 28.8202C130.883 25.8556 132.517 24.294 135.665 24.5258C136.141 24.5502 136.543 24.599 136.568 24.6234Z" fill="#323A3E"/>
<path d="M90.7208 23.0986C89.879 23.2572 89.1714 23.672 88.5736 24.3308L88.0246 24.9408V24.4528C88.0246 24.1844 87.988 23.794 87.9514 23.5866L87.866 23.1962L87.0852 23.2328L86.3044 23.2694L86.3166 28.4543C86.3166 31.2969 86.3654 33.6759 86.4264 33.7369C86.4752 33.7857 86.9022 33.8223 87.3658 33.7979L88.2076 33.7613L88.2686 30.1623C88.3052 27.8322 88.3784 26.4536 88.476 26.2462C89.2202 24.587 91.4772 24.0746 92.6239 25.3068C93.2827 26.0022 93.3193 26.295 93.3681 30.1867L93.4169 33.8223H94.3197H95.2225V30.0647C95.2225 25.929 95.1737 25.563 94.4905 24.526C94.0391 23.8428 93.3681 23.3792 92.4531 23.1474C91.6846 22.9522 91.5138 22.94 90.7208 23.0986Z" fill="#323A3E"/>
<path d="M126.454 23.1474C125.722 23.3792 124.953 24.0502 124.6 24.77L124.319 25.3434L124.258 24.3064L124.197 23.2694L123.355 23.2328L122.513 23.1962L122.587 24.8676C122.635 25.7826 122.672 28.1738 122.672 30.1867V33.8223H123.575H124.478L124.526 30.4307L124.563 27.0514L124.905 26.3438C125.417 25.3068 126.393 24.709 127.381 24.8188L127.796 24.8676V23.9892C127.796 22.879 127.637 22.7814 126.454 23.1474Z" fill="#323A3E"/>
<path d="M82.3394 23.4519C81.7416 23.7935 80.9487 24.7451 80.9487 25.1233C80.9487 25.2087 80.8999 25.2819 80.8389 25.2819C80.7779 25.2819 80.7291 25.2087 80.7413 25.1233C80.7413 25.0501 80.7291 24.5743 80.7291 24.0863L80.7047 23.1957L79.8873 23.2323C79.1187 23.2689 79.0577 23.2933 79.0699 23.5373C79.0699 23.6959 79.0821 26.0749 79.0943 28.8199L79.1187 33.834L80.0703 33.7974L81.0097 33.7608L81.0706 30.3448C81.1316 27.1851 81.156 26.8923 81.3878 26.3799C81.7172 25.6967 82.2418 25.1843 82.8518 24.9769L83.3276 24.8183L83.3642 23.9521C83.4008 22.9274 83.3154 22.8786 82.3394 23.4519Z" fill="#323A3E"/>
<path d="M98.3944 28.5149V33.834L99.346 33.7974L100.285 33.7608V28.5149V23.2689L99.346 23.2323L98.3944 23.1957V28.5149Z" fill="#323A3E"/>
<path d="M111.241 26.8324C111.326 31.2121 111.509 32.1515 112.436 33.0909C113.181 33.8229 113.754 34.0059 115.413 34.0059C117.182 34.0059 117.829 33.7741 118.707 32.8347C119.878 31.5781 120.11 30.5533 120.11 26.4054V23.331H119.134H118.158V26.7104C118.158 28.8209 118.109 30.2849 118.024 30.5899C117.829 31.2731 116.914 32.1637 116.206 32.3589C115.267 32.6151 114.254 32.3101 113.778 31.6391C113.254 30.9193 113.156 30.0897 113.156 26.6006V23.331H112.168H111.18L111.241 26.8324Z" fill="#323A3E"/>
<path d="M67.5289 26.4899C67.5289 31.6016 67.8949 32.9314 69.5297 33.7976C70.1153 34.1026 70.2495 34.127 71.6769 34.127C73.0188 34.127 73.275 34.0904 73.8362 33.8342C74.556 33.517 75.3124 32.7606 75.715 31.9676C76.2762 30.8574 76.3494 30.3938 76.3982 26.8315L76.4592 23.4521H75.471H74.4828V26.7827C74.4828 30.711 74.4218 31.077 73.58 31.8456C72.5309 32.8094 71.0425 32.846 70.2251 31.931C69.5663 31.1746 69.4809 30.6256 69.4809 26.8437V23.4521H68.5049H67.5289V26.4899Z" fill="#323A3E"/>
<path d="M158.296 26.5256C158.296 31.7471 158.674 33.0891 160.345 33.9065C160.967 34.2114 161.162 34.248 162.321 34.248C163.859 34.248 164.627 34.0163 165.396 33.3453C165.689 33.0769 166.079 32.6011 166.262 32.2717C166.872 31.1493 166.97 30.4783 167.043 26.9526L167.116 23.6952H166.189H165.262L165.225 27.2576C165.188 30.6491 165.176 30.8565 164.92 31.3201C164.09 32.8695 162.029 33.3087 160.906 32.1863C160.211 31.4909 160.126 30.9175 160.126 27.0868V23.6952H159.211H158.296V26.5256Z" fill="#F36621"/>
</svg>
