<svg width="138" height="36" viewBox="0 0 138 36" fill="none" xmlns="http://www.w3.org/2000/svg">
<path d="M4.24561 22.7383C4.06006 22.7383 3.85742 22.731 3.6377 22.7163C3.42285 22.7017 3.20312 22.6602 2.97852 22.5918C2.75391 22.5186 2.5293 22.4111 2.30469 22.2695C2.08496 22.123 1.87988 21.9204 1.68945 21.6616C1.54297 21.4663 1.42578 21.2588 1.33789 21.0391C1.25 20.8145 1.18408 20.5825 1.14014 20.3433C1.09619 20.104 1.06689 19.8599 1.05225 19.6108C1.04248 19.3569 1.0376 19.103 1.0376 18.8491V16.5127H2.854L2.84668 18.8857C2.84668 19.2227 2.86133 19.5449 2.89062 19.8525C2.91992 20.1602 3.01025 20.436 3.16162 20.6802C3.23486 20.812 3.32275 20.9243 3.42529 21.0171C3.53271 21.105 3.65723 21.1782 3.79883 21.2368C3.94043 21.2905 4.104 21.3296 4.28955 21.354C4.47998 21.3784 4.69482 21.3906 4.93408 21.3906L8.94043 21.3833C9.26758 21.3833 9.52881 21.3467 9.72412 21.2734C9.91943 21.2002 10.0806 21.0781 10.2075 20.9072C10.3394 20.7217 10.4248 20.5142 10.4639 20.2847C10.5078 20.0552 10.5322 19.8135 10.5371 19.5596C10.5371 19.5498 10.5347 19.5327 10.5298 19.5083C10.5298 19.479 10.5298 19.418 10.5298 19.3252C10.5298 19.2275 10.5298 19.0835 10.5298 18.8931C10.5298 18.6978 10.5298 18.4243 10.5298 18.0728C10.5298 17.7212 10.5298 17.2793 10.5298 16.7471C10.5347 16.21 10.5371 15.5557 10.5371 14.7842H12.2876V19.3618L12.3242 20.4458C12.3828 20.6558 12.4756 20.8242 12.6025 20.9512C12.7295 21.0732 12.8735 21.1685 13.0347 21.2368C13.1958 21.3003 13.3667 21.3418 13.5474 21.3613C13.728 21.3809 13.8989 21.3906 14.0601 21.3906H14.2505V22.7383H13.5327C13.3618 22.7383 13.186 22.7334 13.0054 22.7236C12.8296 22.709 12.6514 22.6821 12.4707 22.6431C12.29 22.604 12.1118 22.5454 11.936 22.4673C11.7651 22.3843 11.604 22.2744 11.4526 22.1377C11.2964 22.2744 11.1328 22.3818 10.9619 22.46C10.7959 22.5381 10.6226 22.5991 10.4419 22.6431C10.2612 22.6821 10.0757 22.7065 9.88525 22.7163C9.69482 22.7261 9.49707 22.731 9.29199 22.731L4.24561 22.7383ZM5.60059 25.353V23.9541H7.35107V25.353H5.60059ZM14.1113 22.731V21.3833L17.4072 21.3906V22.7383L14.1113 22.731ZM17.2754 22.731V21.3833L20.5713 21.3906V22.7383L17.2754 22.731ZM20.4028 21.3906H21.7798C21.5894 21.0781 21.4648 20.729 21.4062 20.3433C21.333 19.855 21.2964 19.3594 21.2964 18.8564C21.2964 18.6465 21.2988 18.4219 21.3037 18.1826C21.3135 17.9434 21.3354 17.6992 21.3696 17.4502C21.4087 17.2012 21.4648 16.957 21.5381 16.7178C21.6162 16.4736 21.7212 16.2466 21.853 16.0366C22.0142 15.7632 22.2021 15.5459 22.417 15.3848C22.6318 15.2188 22.8564 15.0918 23.0908 15.0039C23.3252 14.916 23.5596 14.8599 23.7939 14.8354C24.0283 14.8062 24.2456 14.7915 24.4458 14.7915H26.0718V13.6929H27.8223V14.7915H29.4409C29.6558 14.7915 29.8804 14.8062 30.1147 14.8354C30.3491 14.8647 30.5786 14.9233 30.8032 15.0112C31.0327 15.0991 31.2524 15.2261 31.4624 15.3921C31.6772 15.5532 31.8701 15.7681 32.041 16.0366C32.3193 16.4858 32.4805 16.9546 32.5244 17.4429C32.5684 17.936 32.5903 18.4072 32.5903 18.8564C32.5903 19.125 32.5806 19.3838 32.561 19.6328C32.5464 19.877 32.522 20.1162 32.4878 20.3506C32.4243 20.7998 32.2388 21.2368 31.9312 21.6616C31.7407 21.9204 31.5356 22.123 31.3159 22.2695C31.1011 22.4111 30.8813 22.5186 30.6567 22.5918C30.437 22.6602 30.2173 22.7017 29.9976 22.7163C29.7827 22.731 29.5776 22.7383 29.3823 22.7383H20.4028V21.3906ZM26.0718 16.1392H25.1709C25.0488 16.1392 24.9121 16.144 24.7607 16.1538C24.6143 16.1636 24.4629 16.1904 24.3066 16.2344C24.1553 16.2734 24.0063 16.3369 23.8599 16.4248C23.7183 16.5078 23.5938 16.6226 23.4863 16.769C23.3594 16.9546 23.2642 17.2061 23.2007 17.5234C23.1421 17.8408 23.1128 18.29 23.1128 18.8711C23.1128 19.208 23.1274 19.5327 23.1567 19.8452C23.186 20.1528 23.2764 20.4312 23.4277 20.6802C23.501 20.812 23.5889 20.9243 23.6914 21.0171C23.7988 21.105 23.9233 21.1782 24.0649 21.2368C24.2065 21.2905 24.3701 21.3296 24.5557 21.354C24.7412 21.3784 24.9561 21.3906 25.2002 21.3906H26.0718V16.1392ZM28.6938 21.3906C28.9331 21.3906 29.1455 21.3784 29.3311 21.354C29.5166 21.3296 29.6802 21.2905 29.8218 21.2368C29.9683 21.1782 30.0928 21.105 30.1953 21.0171C30.3027 20.9243 30.3931 20.812 30.4663 20.6802C30.6128 20.4312 30.7007 20.1528 30.73 19.8452C30.7642 19.5327 30.7812 19.208 30.7812 18.8711C30.7812 18.3682 30.7544 17.9458 30.7007 17.604C30.6519 17.2573 30.5518 16.979 30.4004 16.769C30.2979 16.6226 30.1758 16.5078 30.0342 16.4248C29.8926 16.3369 29.7437 16.2734 29.5874 16.2344C29.436 16.1904 29.2847 16.1636 29.1333 16.1538C28.9819 16.144 28.8452 16.1392 28.7231 16.1392H27.8223V21.3906H28.6938Z" fill="#F36621"/>
<path d="M36.4941 24.0566C36.7334 24.0615 36.9409 24.0591 37.1167 24.0493C37.2925 24.0444 37.4463 24.0273 37.5781 23.998C37.7148 23.9736 37.8345 23.937 37.937 23.8882C38.0444 23.8442 38.1494 23.7856 38.252 23.7124C38.3545 23.6392 38.4424 23.5586 38.5156 23.4707C38.5938 23.3828 38.6572 23.2778 38.7061 23.1558C38.7598 23.0386 38.7988 22.8994 38.8232 22.7383C38.8525 22.582 38.8672 22.3965 38.8672 22.1816V14.7915H40.6177V21.3906H41.9214V22.7383H40.6104C40.5957 23.0557 40.5493 23.3291 40.4712 23.5586C40.3931 23.793 40.3027 23.9932 40.2002 24.1592C40.0977 24.3252 39.9902 24.4619 39.8779 24.5693C39.7705 24.6768 39.6777 24.7622 39.5996 24.8257C39.2773 25.0552 38.8672 25.2163 38.3691 25.3091C37.8711 25.4067 37.2461 25.4409 36.4941 25.4116V24.0566ZM41.7529 22.731V21.3833L45.0488 21.3906V22.7383L41.7529 22.731ZM44.873 22.7456V21.3979H46.1621V14.7988H47.9199V21.3979H50.9448V14.7988H52.7026V21.3979H54.3359C54.4141 21.3979 54.4995 21.3955 54.5923 21.3906C54.6851 21.3809 54.7778 21.3638 54.8706 21.3394C54.9683 21.3149 55.061 21.2783 55.1489 21.2295C55.2417 21.1807 55.3247 21.1123 55.3979 21.0244C55.4712 20.9463 55.5298 20.8608 55.5737 20.7681C55.6177 20.6704 55.6519 20.5728 55.6763 20.4751C55.7007 20.3726 55.7153 20.2725 55.7202 20.1748C55.73 20.0771 55.7349 19.9844 55.7349 19.8965V14.7988H57.4854V20.1675C57.4854 20.6167 57.4072 21.0244 57.251 21.3906H58.3789V22.7383L44.873 22.7456ZM48.5791 12.5137V11.1147H50.3296V12.5137H48.5791ZM50.9375 12.5137V11.1147H52.688V12.5137H50.9375ZM53.3179 12.5137V11.1147H55.0684V12.5137H53.3179ZM58.2471 22.731V21.3833L61.543 21.3906V22.7383L58.2471 22.731ZM61.4111 22.731V21.3833H61.5869C61.9141 21.3833 62.1753 21.3467 62.3706 21.2734C62.5659 21.2002 62.7271 21.0781 62.854 20.9072C62.9858 20.7217 63.0713 20.5142 63.1104 20.2847C63.1543 20.0552 63.1787 19.8135 63.1836 19.5596C63.1787 19.5254 63.1763 19.4937 63.1763 19.4644C63.1763 19.4302 63.1763 19.396 63.1763 19.3618H63.1836V14.7842H64.9341V19.3618L64.9707 20.4458C65.0293 20.6558 65.1221 20.8242 65.249 20.9512C65.376 21.0732 65.52 21.1685 65.6812 21.2368C65.8423 21.3003 66.0132 21.3418 66.1938 21.3613C66.3745 21.3809 66.5454 21.3906 66.7065 21.3906H66.897V22.7383H66.1792C66.0083 22.7383 65.8325 22.7334 65.6519 22.7236C65.4761 22.709 65.2979 22.6821 65.1172 22.6431C64.9365 22.604 64.7583 22.5454 64.5825 22.4673C64.4116 22.3843 64.2505 22.2744 64.0991 22.1377C63.9429 22.2744 63.7793 22.3818 63.6084 22.46C63.4424 22.5381 63.269 22.5991 63.0884 22.6431C62.9077 22.6821 62.7222 22.7065 62.5317 22.7163C62.3413 22.7261 62.1436 22.731 61.9385 22.731H61.4111ZM61.9751 13.605V12.2061H63.7256V13.605H61.9751ZM64.3335 13.605V12.2061H66.084V13.605H64.3335ZM66.7578 22.731V21.3833L70.0537 21.3906V22.7383L66.7578 22.731ZM69.9146 22.731V21.3833H70.7715C71.0986 21.3833 71.3599 21.3467 71.5552 21.2734C71.7505 21.2002 71.9116 21.0781 72.0386 20.9072C72.1802 20.7168 72.2705 20.4995 72.3096 20.2554C72.3486 20.0112 72.3682 19.7573 72.3682 19.4937V14.7842H74.1187V20.021C74.1187 20.2944 74.0967 20.5386 74.0527 20.7534C74.0137 20.9683 73.9575 21.1587 73.8843 21.3247C73.8159 21.4907 73.7329 21.6372 73.6353 21.7642C73.5425 21.8862 73.4448 21.9937 73.3423 22.0864C73.1812 22.2329 73.0127 22.3501 72.8369 22.438C72.666 22.521 72.4878 22.5845 72.3022 22.6284C72.1167 22.6724 71.9263 22.7017 71.731 22.7163C71.5356 22.7261 71.333 22.731 71.123 22.731H69.9146ZM72.3755 13.6343V12.2354H74.126V13.6343H72.3755ZM75.1367 24.0566C75.376 24.0615 75.5835 24.0591 75.7593 24.0493C75.9351 24.0444 76.0889 24.0273 76.2207 23.998C76.3574 23.9736 76.4771 23.937 76.5796 23.8882C76.687 23.8442 76.792 23.7856 76.8945 23.7124C76.9971 23.6392 77.085 23.5586 77.1582 23.4707C77.2363 23.3828 77.2998 23.2778 77.3486 23.1558C77.4023 23.0386 77.4414 22.8994 77.4658 22.7383C77.4951 22.582 77.5098 22.3965 77.5098 22.1816V14.7915H79.2603V21.3906H80.564V22.7383H79.2529C79.2383 23.0557 79.1919 23.3291 79.1138 23.5586C79.0356 23.793 78.9453 23.9932 78.8428 24.1592C78.7402 24.3252 78.6328 24.4619 78.5205 24.5693C78.4131 24.6768 78.3203 24.7622 78.2422 24.8257C77.9199 25.0552 77.5098 25.2163 77.0117 25.3091C76.5137 25.4067 75.8887 25.4409 75.1367 25.4116V24.0566ZM80.3955 22.731V21.3833L83.6914 21.3906V22.7383L80.3955 22.731ZM83.5596 22.7383V21.3906H84.9512C84.6631 20.7461 84.519 19.8306 84.519 18.644C84.519 18.019 84.5703 17.46 84.6729 16.9668C84.7852 16.4688 85.0146 16.0317 85.3613 15.6558C85.5469 15.4507 85.7397 15.2896 85.9399 15.1724C86.145 15.0552 86.3525 14.9697 86.5625 14.916C86.7725 14.8574 86.9824 14.8232 87.1924 14.8135C87.4023 14.7988 87.6074 14.7915 87.8076 14.7915H90.3711C90.6055 14.7915 90.8301 14.8062 91.0449 14.8354C91.2646 14.8647 91.4697 14.9551 91.6602 15.1064C91.8652 15.2822 91.9922 15.4727 92.041 15.6777C92.0996 15.8926 92.1289 16.0854 92.1289 16.2563V20.021C92.1289 20.2944 92.1069 20.5386 92.063 20.7534C92.0239 20.9683 91.9678 21.1587 91.8945 21.3247C91.8262 21.4907 91.7432 21.6372 91.6455 21.7642C91.5527 21.8862 91.4551 21.9937 91.3525 22.0864C91.1914 22.2329 91.0229 22.3501 90.8472 22.438C90.6763 22.521 90.498 22.5845 90.3125 22.6284C90.127 22.6724 89.9365 22.7017 89.7412 22.7163C89.5459 22.7261 89.3433 22.731 89.1333 22.731L83.5596 22.7383ZM87.4854 21.332C87.6221 21.3516 87.7563 21.3662 87.8882 21.376C88.0249 21.3857 88.1567 21.3906 88.2837 21.3906L88.7817 21.3833C89.1089 21.3833 89.3701 21.3467 89.5654 21.2734C89.7607 21.2002 89.9219 21.0781 90.0488 20.9072C90.1611 20.7559 90.2393 20.5874 90.2832 20.4019C90.332 20.2114 90.3613 20.0137 90.3711 19.8086V16.769C90.3711 16.6567 90.3589 16.5615 90.3345 16.4834C90.3101 16.4053 90.2466 16.3296 90.144 16.2563C90.0659 16.2075 89.9878 16.1758 89.9097 16.1611C89.8364 16.1465 89.7607 16.1392 89.6826 16.1392H88.1812C87.8882 16.1392 87.6221 16.1831 87.3828 16.271C87.1436 16.354 86.9556 16.4736 86.8188 16.6299C86.6968 16.7715 86.6016 16.9448 86.5332 17.1499C86.4697 17.355 86.4233 17.5625 86.394 17.7725C86.3647 17.9824 86.3477 18.1802 86.3428 18.3657C86.3379 18.5464 86.3354 18.6831 86.3354 18.7759C86.3354 19.1274 86.3501 19.4277 86.3794 19.6768C86.4087 19.9258 86.4453 20.1357 86.4893 20.3066C86.5332 20.4727 86.5796 20.6045 86.6284 20.7021C86.6821 20.7998 86.7334 20.873 86.7822 20.9219C86.9824 21.1514 87.2168 21.2881 87.4854 21.332ZM87.7271 13.6343V12.2354H89.4775V13.6343H87.7271Z" fill="#323A3E"/>
<path d="M119.03 0.864847C118.114 1.00544 116.481 1.58889 116.536 1.75056C116.55 1.78571 118.7 3.06508 121.31 4.59751C131.004 10.2773 131.816 10.7554 131.816 10.7975C131.816 10.8608 127.276 13.6656 127.208 13.6445C127.139 13.6304 111.817 4.62563 111.721 4.54831C111.617 4.45692 111.087 5.1177 110.825 5.666C110.653 6.0245 110.632 6.144 110.632 6.76963C110.632 7.45149 110.639 7.49366 110.873 7.88732C111.349 8.70274 111.425 8.74492 118.72 12.9204L125.54 16.8218L125.561 25.3627L125.582 33.9035L125.768 34.3112C126.016 34.8525 126.539 35.3586 127.042 35.5625C127.352 35.682 127.58 35.7171 128.062 35.7101C128.406 35.7101 128.778 35.682 128.889 35.6468L129.095 35.5836L129.15 30.8386C129.178 28.2307 129.219 24.02 129.254 21.4683L129.302 16.8429L131.568 15.5143C132.815 14.7762 133.842 14.1928 133.849 14.1998C133.863 14.2139 133.904 18.3472 133.938 23.3874C133.98 28.4275 134.028 32.5609 134.042 32.582C134.097 32.6382 135.116 31.8931 135.585 31.4502C136.418 30.6629 136.997 29.7842 137.314 28.8423L137.5 28.2799V20.7232V13.1665L137.307 12.4635C137.1 11.6973 136.653 10.6851 136.246 10.0524C135.902 9.52519 135.054 8.61839 134.538 8.22473C133.938 7.77484 130.749 5.84173 126.512 3.37438C122.544 1.06167 122.406 0.991378 121.173 0.836729C120.401 0.738316 119.747 0.745346 119.03 0.864847Z" fill="#323A3E"/>
<path d="M104.721 10.4668C103.86 10.6707 103.151 11.4017 102.813 12.4351C102.668 12.8709 102.662 13.0185 102.593 19.5981C102.524 26.7963 102.531 27.0916 102.854 28.2304C103.075 29.0106 103.357 29.6222 103.805 30.3111C104.308 31.0773 105.369 32.1317 105.955 32.4481L106.099 32.5254L106.141 30.515C106.168 29.4113 106.189 27.5344 106.196 26.3535C106.203 25.1725 106.223 23.9283 106.251 23.5979L106.292 22.9934L111.356 25.9177C114.146 27.5274 116.95 29.1512 117.597 29.5238C119.14 30.4165 119.692 30.6415 120.449 30.6837C120.98 30.7188 121.056 30.7047 121.276 30.5501C121.641 30.3041 121.827 29.8682 121.827 29.2567C121.827 28.8279 121.793 28.6873 121.586 28.2655C121.111 27.2884 121.262 27.3939 113.409 22.902L106.34 18.86L106.313 16.6457C106.299 15.4296 106.299 14.4174 106.306 14.4104C106.313 14.3963 107.78 15.2328 109.578 16.2802C116.536 20.3222 118.727 21.5313 119.45 21.7492C120.091 21.939 120.697 21.9179 121.076 21.6929C121.49 21.4469 121.744 20.9619 121.806 20.3362L121.848 19.8653L121.304 19.331C120.222 18.2625 117.577 16.5684 111.631 13.131C110.212 12.3085 108.917 11.5423 108.758 11.4299C108.338 11.1346 107.422 10.755 106.678 10.5582C106.003 10.3825 105.224 10.3473 104.721 10.4668Z" fill="#F36621"/>
</svg>
