<svg width="181" height="52" viewBox="0 0 181 52" fill="none" xmlns="http://www.w3.org/2000/svg">
<path d="M5.08398 31.1777C4.83659 31.1777 4.56641 31.168 4.27344 31.1484C3.98698 31.1289 3.69401 31.0736 3.39453 30.9824C3.09505 30.8848 2.79557 30.7415 2.49609 30.5527C2.20312 30.3574 1.92969 30.0872 1.67578 29.7422C1.48047 29.4818 1.32422 29.2051 1.20703 28.9121C1.08984 28.6126 1.00195 28.3034 0.943359 27.9844C0.884766 27.6654 0.845703 27.3398 0.826172 27.0078C0.813151 26.6693 0.806641 26.3307 0.806641 25.9922V22.877H3.22852L3.21875 26.041C3.21875 26.4902 3.23828 26.9199 3.27734 27.3301C3.31641 27.7402 3.43685 28.1081 3.63867 28.4336C3.73633 28.6094 3.85352 28.7591 3.99023 28.8828C4.13346 29 4.29948 29.0977 4.48828 29.1758C4.67708 29.2474 4.89518 29.2995 5.14258 29.332C5.39648 29.3646 5.68294 29.3809 6.00195 29.3809L11.3438 29.3711C11.7799 29.3711 12.1283 29.3223 12.3887 29.2246C12.6491 29.127 12.8639 28.9642 13.0332 28.7363C13.209 28.4889 13.3229 28.2122 13.375 27.9062C13.4336 27.6003 13.4661 27.278 13.4727 26.9395C13.4727 26.9264 13.4694 26.9036 13.4629 26.8711C13.4629 26.832 13.4629 26.7507 13.4629 26.627C13.4629 26.4967 13.4629 26.3047 13.4629 26.0508C13.4629 25.7904 13.4629 25.4258 13.4629 24.957C13.4629 24.4883 13.4629 23.8991 13.4629 23.1895C13.4694 22.4733 13.4727 21.6009 13.4727 20.5723H15.8066V26.6758L15.8555 28.1211C15.9336 28.401 16.0573 28.6257 16.2266 28.7949C16.3958 28.9577 16.5879 29.0846 16.8027 29.1758C17.0176 29.2604 17.2454 29.3158 17.4863 29.3418C17.7272 29.3678 17.9551 29.3809 18.1699 29.3809H18.4238V31.1777H17.4668C17.2389 31.1777 17.0046 31.1712 16.7637 31.1582C16.5293 31.1387 16.2917 31.1029 16.0508 31.0508C15.8099 30.9987 15.5723 30.9206 15.3379 30.8164C15.11 30.7057 14.8952 30.5592 14.6934 30.377C14.485 30.5592 14.2669 30.7025 14.0391 30.8066C13.8177 30.9108 13.5866 30.9922 13.3457 31.0508C13.1048 31.1029 12.8574 31.1354 12.6035 31.1484C12.3496 31.1615 12.0859 31.168 11.8125 31.168L5.08398 31.1777ZM6.89062 34.6641V32.7988H9.22461V34.6641H6.89062ZM18.2383 31.168V29.3711L22.6328 29.3809V31.1777L18.2383 31.168ZM22.457 31.168V29.3711L26.8516 29.3809V31.1777L22.457 31.168ZM26.627 29.3809H28.4629C28.209 28.9642 28.043 28.4987 27.9648 27.9844C27.8672 27.3333 27.8184 26.6725 27.8184 26.002C27.8184 25.722 27.8216 25.4225 27.8281 25.1035C27.8411 24.7845 27.8704 24.459 27.916 24.127C27.9681 23.7949 28.043 23.4694 28.1406 23.1504C28.2448 22.8249 28.3848 22.5221 28.5605 22.2422C28.7754 21.8776 29.026 21.5879 29.3125 21.373C29.599 21.1517 29.8984 20.9824 30.2109 20.8652C30.5234 20.748 30.8359 20.6732 31.1484 20.6406C31.4609 20.6016 31.7507 20.582 32.0176 20.582H34.1855V19.1172H36.5195V20.582H38.6777C38.9642 20.582 39.2637 20.6016 39.5762 20.6406C39.8887 20.6797 40.1947 20.7578 40.4941 20.875C40.8001 20.9922 41.0931 21.1615 41.373 21.3828C41.6595 21.5977 41.9167 21.8841 42.1445 22.2422C42.5156 22.8411 42.7305 23.4661 42.7891 24.1172C42.8477 24.7747 42.877 25.403 42.877 26.002C42.877 26.36 42.8639 26.7051 42.8379 27.0371C42.8184 27.3626 42.7858 27.6816 42.7402 27.9941C42.6556 28.5931 42.4082 29.1758 41.998 29.7422C41.7441 30.0872 41.4707 30.3574 41.1777 30.5527C40.8913 30.7415 40.5983 30.8848 40.2988 30.9824C40.0059 31.0736 39.7129 31.1289 39.4199 31.1484C39.1335 31.168 38.86 31.1777 38.5996 31.1777H26.627V29.3809ZM34.1855 22.3789H32.9844C32.8216 22.3789 32.6393 22.3854 32.4375 22.3984C32.2422 22.4115 32.0404 22.4473 31.832 22.5059C31.6302 22.5579 31.4316 22.6426 31.2363 22.7598C31.0475 22.8704 30.8815 23.0234 30.7383 23.2188C30.569 23.4661 30.4421 23.8014 30.3574 24.2246C30.2793 24.6478 30.2402 25.2467 30.2402 26.0215C30.2402 26.4707 30.2598 26.9036 30.2988 27.3203C30.3379 27.7305 30.4583 28.1016 30.6602 28.4336C30.7578 28.6094 30.875 28.7591 31.0117 28.8828C31.1549 29 31.321 29.0977 31.5098 29.1758C31.6986 29.2474 31.9167 29.2995 32.1641 29.332C32.4115 29.3646 32.6979 29.3809 33.0234 29.3809H34.1855V22.3789ZM37.6816 29.3809C38.0007 29.3809 38.2839 29.3646 38.5312 29.332C38.7786 29.2995 38.9967 29.2474 39.1855 29.1758C39.3809 29.0977 39.5469 29 39.6836 28.8828C39.8268 28.7591 39.9473 28.6094 40.0449 28.4336C40.2402 28.1016 40.3574 27.7305 40.3965 27.3203C40.4421 26.9036 40.4648 26.4707 40.4648 26.0215C40.4648 25.3509 40.429 24.7878 40.3574 24.332C40.2923 23.8698 40.1589 23.4987 39.957 23.2188C39.8203 23.0234 39.6576 22.8704 39.4688 22.7598C39.2799 22.6426 39.0814 22.5579 38.873 22.5059C38.6712 22.4473 38.4694 22.4115 38.2676 22.3984C38.0658 22.3854 37.8835 22.3789 37.7207 22.3789H36.5195V29.3809H37.6816Z" fill="#F36621"/>
<path d="M48.082 32.9355C48.401 32.9421 48.6777 32.9388 48.9121 32.9258C49.1465 32.9193 49.3516 32.8965 49.5273 32.8574C49.7096 32.8249 49.8691 32.776 50.0059 32.7109C50.1491 32.6523 50.2891 32.5742 50.4258 32.4766C50.5625 32.3789 50.6797 32.2715 50.7773 32.1543C50.8815 32.0371 50.9661 31.8971 51.0312 31.7344C51.1029 31.5781 51.1549 31.3926 51.1875 31.1777C51.2266 30.9694 51.2461 30.722 51.2461 30.4355V20.582H53.5801V29.3809H55.3184V31.1777H53.5703C53.5508 31.6009 53.4889 31.9655 53.3848 32.2715C53.2806 32.584 53.1602 32.8509 53.0234 33.0723C52.8867 33.2936 52.7435 33.4759 52.5938 33.6191C52.4505 33.7624 52.3268 33.8763 52.2227 33.9609C51.793 34.2669 51.2461 34.4818 50.582 34.6055C49.918 34.7357 49.0846 34.7812 48.082 34.7422V32.9355ZM55.0938 31.168V29.3711L59.4883 29.3809V31.1777L55.0938 31.168ZM59.2539 31.1875V29.3906H60.9727V20.5918H63.3164V29.3906H67.3496V20.5918H69.6934V29.3906H71.8711C71.9753 29.3906 72.0892 29.3874 72.2129 29.3809C72.3366 29.3678 72.4603 29.3451 72.584 29.3125C72.7142 29.2799 72.8379 29.2311 72.9551 29.166C73.0788 29.1009 73.1895 29.0098 73.2871 28.8926C73.3848 28.7884 73.4629 28.6745 73.5215 28.5508C73.5801 28.4206 73.6257 28.2904 73.6582 28.1602C73.6908 28.0234 73.7103 27.89 73.7168 27.7598C73.7298 27.6296 73.7363 27.5059 73.7363 27.3887V20.5918H76.0703V27.75C76.0703 28.349 75.9661 28.8926 75.7578 29.3809H77.2617V31.1777L59.2539 31.1875ZM64.1953 17.5449V15.6797H66.5293V17.5449H64.1953ZM67.3398 17.5449V15.6797H69.6738V17.5449H67.3398ZM70.5137 17.5449V15.6797H72.8477V17.5449H70.5137ZM77.0859 31.168V29.3711L81.4805 29.3809V31.1777L77.0859 31.168ZM81.3047 31.168V29.3711H81.5391C81.9753 29.3711 82.3236 29.3223 82.584 29.2246C82.8444 29.127 83.0592 28.9642 83.2285 28.7363C83.4043 28.4889 83.5182 28.2122 83.5703 27.9062C83.6289 27.6003 83.6615 27.278 83.668 26.9395C83.6615 26.8939 83.6582 26.8516 83.6582 26.8125C83.6582 26.7669 83.6582 26.7214 83.6582 26.6758H83.668V20.5723H86.002V26.6758L86.0508 28.1211C86.1289 28.401 86.2526 28.6257 86.4219 28.7949C86.5911 28.9577 86.7832 29.0846 86.998 29.1758C87.2129 29.2604 87.4408 29.3158 87.6816 29.3418C87.9225 29.3678 88.1504 29.3809 88.3652 29.3809H88.6191V31.1777H87.6621C87.4342 31.1777 87.1999 31.1712 86.959 31.1582C86.7246 31.1387 86.487 31.1029 86.2461 31.0508C86.0052 30.9987 85.7676 30.9206 85.5332 30.8164C85.3053 30.7057 85.0905 30.5592 84.8887 30.377C84.6803 30.5592 84.4622 30.7025 84.2344 30.8066C84.013 30.9108 83.7819 30.9922 83.541 31.0508C83.3001 31.1029 83.0527 31.1354 82.7988 31.1484C82.5449 31.1615 82.2812 31.168 82.0078 31.168H81.3047ZM82.0566 19V17.1348H84.3906V19H82.0566ZM85.2012 19V17.1348H87.5352V19H85.2012ZM88.4336 31.168V29.3711L92.8281 29.3809V31.1777L88.4336 31.168ZM92.6426 31.168V29.3711H93.7852C94.2214 29.3711 94.5697 29.3223 94.8301 29.2246C95.0905 29.127 95.3053 28.9642 95.4746 28.7363C95.6634 28.4824 95.7839 28.1927 95.8359 27.8672C95.888 27.5417 95.9141 27.2031 95.9141 26.8516V20.5723H98.248V27.5547C98.248 27.9193 98.2188 28.2448 98.1602 28.5312C98.1081 28.8177 98.0332 29.0716 97.9355 29.293C97.8444 29.5143 97.7337 29.7096 97.6035 29.8789C97.4798 30.0417 97.3496 30.1849 97.2129 30.3086C96.998 30.5039 96.7734 30.6602 96.5391 30.7773C96.3112 30.888 96.0736 30.9727 95.8262 31.0312C95.5788 31.0898 95.3249 31.1289 95.0645 31.1484C94.804 31.1615 94.5339 31.168 94.2539 31.168H92.6426ZM95.9238 19.0391V17.1738H98.2578V19.0391H95.9238ZM99.6055 32.9355C99.9245 32.9421 100.201 32.9388 100.436 32.9258C100.67 32.9193 100.875 32.8965 101.051 32.8574C101.233 32.8249 101.393 32.776 101.529 32.7109C101.673 32.6523 101.812 32.5742 101.949 32.4766C102.086 32.3789 102.203 32.2715 102.301 32.1543C102.405 32.0371 102.49 31.8971 102.555 31.7344C102.626 31.5781 102.678 31.3926 102.711 31.1777C102.75 30.9694 102.77 30.722 102.77 30.4355V20.582H105.104V29.3809H106.842V31.1777H105.094C105.074 31.6009 105.012 31.9655 104.908 32.2715C104.804 32.584 104.684 32.8509 104.547 33.0723C104.41 33.2936 104.267 33.4759 104.117 33.6191C103.974 33.7624 103.85 33.8763 103.746 33.9609C103.316 34.2669 102.77 34.4818 102.105 34.6055C101.441 34.7357 100.608 34.7812 99.6055 34.7422V32.9355ZM106.617 31.168V29.3711L111.012 29.3809V31.1777L106.617 31.168ZM110.836 31.1777V29.3809H112.691C112.307 28.5215 112.115 27.3008 112.115 25.7188C112.115 24.8854 112.184 24.14 112.32 23.4824C112.47 22.8184 112.776 22.2357 113.238 21.7344C113.486 21.4609 113.743 21.2461 114.01 21.0898C114.283 20.9336 114.56 20.8197 114.84 20.748C115.12 20.6699 115.4 20.6243 115.68 20.6113C115.96 20.5918 116.233 20.582 116.5 20.582H119.918C120.23 20.582 120.53 20.6016 120.816 20.6406C121.109 20.6797 121.383 20.8001 121.637 21.002C121.91 21.2363 122.079 21.4902 122.145 21.7637C122.223 22.0501 122.262 22.3073 122.262 22.5352V27.5547C122.262 27.9193 122.232 28.2448 122.174 28.5312C122.122 28.8177 122.047 29.0716 121.949 29.293C121.858 29.5143 121.747 29.7096 121.617 29.8789C121.493 30.0417 121.363 30.1849 121.227 30.3086C121.012 30.5039 120.787 30.6602 120.553 30.7773C120.325 30.888 120.087 30.9727 119.84 31.0312C119.592 31.0898 119.339 31.1289 119.078 31.1484C118.818 31.1615 118.548 31.168 118.268 31.168L110.836 31.1777ZM116.07 29.3027C116.253 29.3288 116.432 29.3483 116.607 29.3613C116.79 29.3743 116.965 29.3809 117.135 29.3809L117.799 29.3711C118.235 29.3711 118.583 29.3223 118.844 29.2246C119.104 29.127 119.319 28.9642 119.488 28.7363C119.638 28.5345 119.742 28.3099 119.801 28.0625C119.866 27.8086 119.905 27.5449 119.918 27.2715V23.2188C119.918 23.069 119.902 22.9421 119.869 22.8379C119.837 22.7337 119.752 22.6328 119.615 22.5352C119.511 22.4701 119.407 22.4277 119.303 22.4082C119.205 22.3887 119.104 22.3789 119 22.3789H116.998C116.607 22.3789 116.253 22.4375 115.934 22.5547C115.615 22.6654 115.364 22.8249 115.182 23.0332C115.019 23.222 114.892 23.4531 114.801 23.7266C114.716 24 114.654 24.2767 114.615 24.5566C114.576 24.8366 114.553 25.1003 114.547 25.3477C114.54 25.5885 114.537 25.7708 114.537 25.8945C114.537 26.3633 114.557 26.7637 114.596 27.0957C114.635 27.4277 114.684 27.7077 114.742 27.9355C114.801 28.1569 114.863 28.3327 114.928 28.4629C114.999 28.5931 115.068 28.6908 115.133 28.7559C115.4 29.0618 115.712 29.2441 116.07 29.3027ZM116.393 19.0391V17.1738H118.727V19.0391H116.393Z" fill="#323A3E"/>
<path d="M152.704 0.142069C151.33 0.348703 148.881 1.20623 148.964 1.44386C148.985 1.49552 152.208 3.37588 156.124 5.62819C170.66 13.9762 171.88 14.6787 171.88 14.7407C171.88 14.8337 165.071 18.956 164.968 18.925C164.864 18.9044 141.887 5.66951 141.742 5.55587C141.587 5.42155 140.792 6.39273 140.399 7.1986C140.141 7.72552 140.11 7.90115 140.11 8.82067C140.11 9.82285 140.12 9.88483 140.471 10.4634C141.184 11.6619 141.298 11.7239 152.239 17.8609L162.467 23.595L162.498 36.1479L162.529 48.7009L162.808 49.3002C163.18 50.0957 163.965 50.8396 164.72 51.1392C165.185 51.3148 165.526 51.3665 166.249 51.3562C166.765 51.3562 167.323 51.3148 167.489 51.2632L167.798 51.1702L167.881 44.1963C167.922 40.3633 167.984 34.1746 168.036 30.4242L168.108 23.626L171.508 21.6733C173.378 20.5884 174.917 19.7309 174.927 19.7412C174.948 19.7619 175.01 25.8369 175.062 33.2447C175.124 40.6526 175.196 46.7276 175.217 46.7586C175.299 46.8412 176.828 45.7461 177.531 45.0952C178.781 43.938 179.649 42.6466 180.124 41.2621L180.403 40.4356V29.329V18.2225L180.114 17.1893C179.804 16.0632 179.132 14.5754 178.523 13.6456C178.006 12.8707 176.735 11.5379 175.961 10.9593C175.062 10.2981 170.278 7.45689 163.924 3.83048C157.973 0.431356 157.766 0.328039 155.917 0.100743C154.76 -0.0439009 153.778 -0.0335692 152.704 0.142069Z" fill="#323A3E"/>
<path d="M131.245 14.255C129.954 14.5546 128.889 15.6291 128.383 17.1479C128.166 17.7884 128.156 18.0054 128.053 27.6758C127.949 38.2555 127.96 38.6894 128.445 40.3631C128.776 41.5099 129.199 42.4088 129.871 43.4213C130.625 44.5475 132.216 46.0972 133.094 46.5621L133.311 46.6758L133.373 43.7209C133.415 42.0989 133.446 39.3403 133.456 37.6046C133.466 35.8689 133.497 34.0401 133.539 33.5546L133.601 32.666L141.194 36.964C145.379 39.33 149.584 41.7166 150.555 42.2642C152.869 43.5763 153.696 43.9069 154.832 43.9689C155.628 44.0205 155.741 43.9999 156.072 43.7726C156.62 43.411 156.899 42.7704 156.899 41.8716C156.899 41.2413 156.847 41.0347 156.537 40.4148C155.824 38.9787 156.051 39.1337 144.273 32.5317L133.673 26.591L133.632 23.3365C133.611 21.5492 133.611 20.0614 133.621 20.0511C133.632 20.0304 135.832 21.2599 138.529 22.7993C148.964 28.74 152.249 30.517 153.334 30.8373C154.295 31.1163 155.204 31.0853 155.772 30.7547C156.392 30.3931 156.775 29.6802 156.868 28.7607L156.93 28.0684L156.113 27.2832C154.491 25.7128 150.524 23.2229 141.608 18.1707C139.479 16.9619 137.537 15.8357 137.299 15.6704C136.669 15.2365 135.295 14.6786 134.179 14.3893C133.167 14.131 131.999 14.0794 131.245 14.255Z" fill="#F36621"/>
</svg>
